<svg width="26" height="23" viewBox="0 0 26 23" fill="none" xmlns="http://www.w3.org/2000/svg">
<path d="M10.5 10.0176C13.2625 10.0176 15.5 7.78008 15.5 5.01758C15.5 2.25508 13.2625 0.0175781 10.5 0.0175781C7.7375 0.0175781 5.5 2.25508 5.5 5.01758C5.5 7.78008 7.7375 10.0176 10.5 10.0176ZM10.5 2.51758C11.875 2.51758 13 3.64258 13 5.01758C13 6.39258 11.875 7.51758 10.5 7.51758C9.125 7.51758 8 6.39258 8 5.01758C8 3.64258 9.125 2.51758 10.5 2.51758Z" fill="#F0386B"/>
<path d="M3 17.5174C3.275 16.6174 7.1375 15.0174 10.5 15.0174C10.5 14.1424 10.6625 13.3049 10.9375 12.5299C7.525 12.4049 0.5 14.1049 0.5 17.5174V20.0174H12.425C11.775 19.2924 11.2625 18.4549 10.9375 17.5174H3Z" fill="#F0386B"/>
<path d="M22.2875 17.5426C22.7375 16.8051 23 15.9426 23 15.0176C23 12.2551 20.7625 10.0176 18 10.0176C15.2375 10.0176 13 12.2551 13 15.0176C13 17.7801 15.2375 20.0176 18 20.0176C18.925 20.0176 19.7875 19.7426 20.525 19.3051C21.6875 20.4676 22.55 21.3301 23.7375 22.5176L25.5 20.7551C23.625 18.8801 24.5125 19.7551 22.2875 17.5426ZM18 17.5176C16.625 17.5176 15.5 16.3926 15.5 15.0176C15.5 13.6426 16.625 12.5176 18 12.5176C19.375 12.5176 20.5 13.6426 20.5 15.0176C20.5 16.3926 19.375 17.5176 18 17.5176Z" fill="#F0386B"/>
</svg>
