<svg width="24" height="24" viewBox="0 0 24 24" fill="none" xmlns="http://www.w3.org/2000/svg">
<path d="M3.25 15.7676H0.75V20.7676C0.75 22.1426 1.875 23.2676 3.25 23.2676H8.25V20.7676H3.25V15.7676ZM3.25 3.26758H8.25V0.767578H3.25C1.875 0.767578 0.75 1.89258 0.75 3.26758V8.26758H3.25V3.26758ZM20.75 0.767578H15.75V3.26758H20.75V8.26758H23.25V3.26758C23.25 1.89258 22.125 0.767578 20.75 0.767578ZM20.75 20.7676H15.75V23.2676H20.75C22.125 23.2676 23.25 22.1426 23.25 20.7676V15.7676H20.75V20.7676ZM12 8.26758C9.925 8.26758 8.25 9.94258 8.25 12.0176C8.25 14.0926 9.925 15.7676 12 15.7676C14.075 15.7676 15.75 14.0926 15.75 12.0176C15.75 9.94258 14.075 8.26758 12 8.26758Z" fill="#F0386B"/>
</svg>
