<svg width="24" height="25" viewBox="0 0 24 25" fill="none" xmlns="http://www.w3.org/2000/svg">
<path d="M21.9125 8.45512L17.4125 10.5551L14.5 7.64262V5.89262L17.4125 2.98012L21.9125 5.08012C22.3875 5.30512 22.9375 5.09262 23.1625 4.63012C23.3875 4.15512 23.175 3.60512 22.7125 3.38012L17.8125 1.09262C17.3375 0.867621 16.775 0.967621 16.4 1.34262L14.225 3.51762C14 3.21762 13.65 3.01762 13.25 3.01762C12.5625 3.01762 12 3.58012 12 4.26762V5.51762H8.025C7.5 4.06762 6.125 3.01762 4.5 3.01762C2.425 3.01762 0.75 4.69262 0.75 6.76762C0.75 8.14262 1.5 9.33012 2.6 9.99262L5.85 20.5176H4.5C3.125 20.5176 2 21.6426 2 23.0176V24.2676H18.25V23.0176C18.25 21.6426 17.125 20.5176 15.75 20.5176H13.725L7.5125 8.98012C7.725 8.68012 7.9 8.36762 8.025 8.01762H12V9.26762C12 9.95512 12.5625 10.5176 13.25 10.5176C13.65 10.5176 14 10.3176 14.225 10.0176L16.4 12.1926C16.775 12.5676 17.3375 12.6676 17.8125 12.4426L22.7125 10.1551C23.1875 9.93012 23.3875 9.38012 23.1625 8.90512C22.9375 8.44262 22.3875 8.23012 21.9125 8.45512ZM4.5 8.01762C3.8125 8.01762 3.25 7.45512 3.25 6.76762C3.25 6.08012 3.8125 5.51762 4.5 5.51762C5.1875 5.51762 5.75 6.08012 5.75 6.76762C5.75 7.45512 5.1875 8.01762 4.5 8.01762ZM10.8875 20.5176H8.4625L5.3875 10.5176H5.5125L10.8875 20.5176Z" fill="#F0386B"/>
</svg>
