<svg viewBox="0 0 21 22" fill="currentColor" xmlns="http://www.w3.org/2000/svg">
<path d="M2 17.5V6.5H18V9.79C18.72 10.01 19.4 10.33 20 10.76V6.5C20 5.39 19.11 4.5 18 4.5H14V2.5C14 1.39 13.11 0.5 12 0.5H8C6.89 0.5 6 1.39 6 2.5V4.5H2C0.89 4.5 0.00999999 5.39 0.00999999 6.5L0 17.5C0 18.61 0.89 19.5 2 19.5H9.68C9.38 18.88 9.18 18.21 9.08 17.5H2ZM8 2.5H12V4.5H8V2.5Z" />
<path d="M16 11.5C13.24 11.5 11 13.74 11 16.5C11 19.26 13.24 21.5 16 21.5C18.76 21.5 21 19.26 21 16.5C21 13.74 18.76 11.5 16 11.5ZM17.65 18.85L15.5 16.7V13.5H16.5V16.29L18.35 18.14L17.65 18.85Z" />
</svg>
