<svg width="19" height="18" viewBox="0 0 19 18" fill="none" xmlns="http://www.w3.org/2000/svg">
<path d="M2.5 18C1.95 18 1.479 17.8043 1.087 17.413C0.695667 17.021 0.5 16.55 0.5 16V2C0.5 1.45 0.695667 0.979 1.087 0.587C1.479 0.195667 1.95 0 2.5 0H16.5C17.05 0 17.521 0.195667 17.913 0.587C18.3043 0.979 18.5 1.45 18.5 2V16C18.5 16.55 18.3043 17.021 17.913 17.413C17.521 17.8043 17.05 18 16.5 18H2.5ZM8.1 12.775C8.23333 12.775 8.35833 12.7543 8.475 12.713C8.59167 12.671 8.7 12.6 8.8 12.5L14.475 6.825C14.6583 6.64167 14.75 6.41667 14.75 6.15C14.75 5.88333 14.65 5.65 14.45 5.45C14.2667 5.26667 14.0333 5.175 13.75 5.175C13.4667 5.175 13.2333 5.26667 13.05 5.45L8.1 10.4L5.925 8.225C5.74167 8.04167 5.51667 7.95 5.25 7.95C4.98333 7.95 4.75 8.05 4.55 8.25C4.36667 8.43333 4.275 8.66667 4.275 8.95C4.275 9.23333 4.36667 9.46667 4.55 9.65L7.4 12.5C7.5 12.6 7.60833 12.671 7.725 12.713C7.84167 12.7543 7.96667 12.775 8.1 12.775Z" fill="#0D6EFD"/>
</svg>
