<svg width="16" height="22" viewBox="0 0 16 22" fill="none" xmlns="http://www.w3.org/2000/svg">
<path d="M8 0.5C4.67619 0.5 2 3.17619 2 6.5V7.5C0.906937 7.5 0 8.40694 0 9.5V19.5C0 20.5931 0.906937 21.5 2 21.5H14C15.0931 21.5 16 20.5931 16 19.5V9.5C16 8.40694 15.0931 7.5 14 7.5V6.5C14 3.17619 11.3238 0.5 8 0.5ZM8 2.5C10.2762 2.5 12 4.22381 12 6.5V7.5H4V6.5C4 4.22381 5.72381 2.5 8 2.5ZM2 9.5H14V19.5H2V9.5ZM8 12.5C6.9 12.5 6 13.4 6 14.5C6 15.6 6.9 16.5 8 16.5C9.1 16.5 10 15.6 10 14.5C10 13.4 9.1 12.5 8 12.5Z" fill="#0B2A52"/>
</svg>
