<svg viewBox="0 0 22 17" fill="currentColor" xmlns="http://www.w3.org/2000/svg">
<path d="M15.6719 9.62988C17.0419 10.5599 18.0019 11.8199 18.0019 13.4999V16.4999H22.0019V13.4999C22.0019 11.3199 18.4319 10.0299 15.6719 9.62988Z"/>
<path d="M14.0019 8.5C16.2119 8.5 18.0019 6.71 18.0019 4.5C18.0019 2.29 16.2119 0.5 14.0019 0.5C13.5319 0.5 13.0919 0.6 12.6719 0.74C13.5019 1.77 14.0019 3.08 14.0019 4.5C14.0019 5.92 13.5019 7.23 12.6719 8.26C13.0919 8.4 13.5319 8.5 14.0019 8.5Z"/>
<path d="M8 8.5C10.21 8.5 12 6.71 12 4.5C12 2.29 10.21 0.5 8 0.5C5.79 0.5 4 2.29 4 4.5C4 6.71 5.79 8.5 8 8.5ZM8 2.5C9.1 2.5 10 3.4 10 4.5C10 5.6 9.1 6.5 8 6.5C6.9 6.5 6 5.6 6 4.5C6 3.4 6.9 2.5 8 2.5Z"/>
<path d="M8 9.5C5.33 9.5 0 10.84 0 13.5V16.5H16V13.5C16 10.84 10.67 9.5 8 9.5ZM14 14.5H2V13.51C2.2 12.79 5.3 11.5 8 11.5C10.7 11.5 13.8 12.79 14 13.5V14.5Z"/>
</svg>
