<svg width="14" height="12" viewBox="0 0 14 12" fill="none" xmlns="http://www.w3.org/2000/svg">
<path d="M10.9987 0.666504H2.9987C1.52536 0.666504 0.332031 1.85984 0.332031 3.33317V8.6665C0.332031 10.1398 1.52536 11.3332 2.9987 11.3332H10.9987C12.472 11.3332 13.6654 10.1398 13.6654 8.6665V3.33317C13.6654 1.85984 12.472 0.666504 10.9987 0.666504ZM9.7587 7.17984C9.5987 7.31317 9.3787 7.3665 9.17203 7.31317L1.76536 5.49984C1.96536 5.01317 2.4387 4.6665 2.9987 4.6665H10.9987C11.4454 4.6665 11.8387 4.89317 12.0854 5.2265L9.7587 7.17984ZM2.9987 1.99984H10.9987C11.732 1.99984 12.332 2.59984 12.332 3.33317V3.69984C11.9387 3.47317 11.4854 3.33317 10.9987 3.33317H2.9987C2.51203 3.33317 2.0587 3.47317 1.66536 3.69984V3.33317C1.66536 2.59984 2.26536 1.99984 2.9987 1.99984Z" fill="#6C757D"/>
</svg>
