<svg width="32" height="33" viewBox="0 0 32 33" fill="none" xmlns="http://www.w3.org/2000/svg">
<g clip-path="url(#clip0_7059_1750)">
<rect y="0.34375" width="32" height="32" rx="9.01702" fill="white"/>
<path d="M19.0347 16.3445C19.0347 17.1299 18.7236 17.8833 18.1695 18.4398C17.6153 18.9964 16.8633 19.3107 16.0779 19.3141C15.2925 19.3107 14.5405 18.9964 13.9863 18.4398C13.4322 17.8833 13.1211 17.1299 13.1211 16.3445C13.1245 15.5614 13.4371 14.8112 13.9909 14.2575C14.5446 13.7037 15.2947 13.3911 16.0779 13.3877C16.861 13.3911 17.6111 13.7037 18.1649 14.2575C18.7187 14.8112 19.0313 15.5614 19.0347 16.3445Z" fill="#F0386B"/>
<path d="M19.7509 8.72754H12.2502C11.2317 8.72754 10.255 9.13213 9.53484 9.85227C8.8147 10.5724 8.41016 11.5491 8.41016 12.5675V20.0555C8.41016 21.074 8.8147 22.0507 9.53484 22.7708C10.255 23.491 11.2317 23.8955 12.2502 23.8955H19.7509C20.7694 23.8955 21.7461 23.491 22.4662 22.7708C23.1864 22.0507 23.5909 21.074 23.5909 20.0555V12.5675C23.5909 11.5491 23.1864 10.5724 22.4662 9.85227C21.7461 9.13213 20.7694 8.72754 19.7509 8.72754ZM16.0773 20.9644C14.8518 20.9644 13.6765 20.4775 12.8099 19.6109C11.9434 18.7444 11.4566 17.5691 11.4566 16.3436C11.4566 15.118 11.9434 13.9427 12.8099 13.0762C13.6765 12.2096 14.8518 11.7228 16.0773 11.7228C17.3029 11.7228 18.4782 12.2096 19.3448 13.0762C20.2113 13.9427 20.6981 15.118 20.6981 16.3436C20.6981 17.5691 20.2113 18.7444 19.3448 19.6109C18.4782 20.4775 17.3029 20.9644 16.0773 20.9644ZM20.967 12.5163C20.675 12.5163 20.395 12.4004 20.1886 12.1939C19.9822 11.9875 19.8662 11.7075 19.8662 11.4155C19.8695 11.1246 19.9865 10.8466 20.1923 10.6408C20.398 10.4351 20.676 10.3181 20.967 10.3147C21.2579 10.3181 21.5359 10.4351 21.7416 10.6408C21.9474 10.8466 22.0644 11.1246 22.0677 11.4155C22.0677 11.7075 21.9518 11.9875 21.7453 12.1939C21.5389 12.4004 21.2589 12.5163 20.967 12.5163Z" fill="#F0386B"/>
<path d="M22.208 0.34375H9.79203C7.19814 0.353863 4.71339 1.38876 2.87922 3.22293C1.04505 5.0571 0.0101127 7.54186 0 10.1357V22.5517C0.00675764 25.1467 1.04058 27.6334 2.87547 29.4683C4.71036 31.3032 7.19711 32.337 9.79203 32.3438H22.208C24.8029 32.337 27.2896 31.3032 29.1245 29.4683C30.9594 27.6334 31.9932 25.1467 32 22.5517V10.1357C31.9899 7.54186 30.9549 5.0571 29.1208 3.22293C27.2866 1.38876 24.8019 0.353863 22.208 0.34375ZM25.3824 20.0941C25.379 21.5868 24.7845 23.0174 23.7291 24.0728C22.6736 25.1283 21.243 25.7228 19.7504 25.7262H12.2496C10.7569 25.7228 9.32641 25.1283 8.27094 24.0728C7.21546 23.0174 6.62096 21.5868 6.61758 20.0941V12.6062C6.62096 11.1135 7.21546 9.68293 8.27094 8.62746C9.32641 7.57199 10.7569 6.97752 12.2496 6.97414H19.7504C21.243 6.97752 22.6736 7.57199 23.7291 8.62746C24.7845 9.68293 25.379 11.1135 25.3824 12.6062V20.0941Z" fill="#F0386B"/>
</g>
<defs>
<clipPath id="clip0_7059_1750">
<rect y="0.34375" width="32" height="32" rx="9.01702" fill="white"/>
</clipPath>
</defs>
</svg>
