<svg width="169" height="17" viewBox="0 0 169 17" fill="none" xmlns="http://www.w3.org/2000/svg">
<path d="M19.9467 16.9518C17.7685 16.9518 15.5782 16.1554 13.8956 14.5774L11.2173 12.0659L7.43617 16.0437L7.18489 16.1989C5.78444 17.061 4.00579 17.1217 2.54445 16.3582C1.08397 15.5938 0.175781 14.1291 0.175781 12.5347V2.80391C0.175781 1.60111 1.1946 0.625733 2.45012 0.625733C3.70649 0.625733 4.72446 1.60111 4.72446 2.80308V11.542C4.72446 11.854 5.12495 12.0026 5.3445 11.7719L13.4796 3.21442C15.0182 1.59618 17.2093 0.619986 19.4914 0.537063C21.7374 0.456603 23.8634 1.21359 25.4774 2.67172C25.5837 2.76778 25.6858 2.86548 25.787 2.96565L25.9842 3.16269C29.1787 6.35318 29.1221 11.4911 25.8573 14.616C25.7561 14.7128 25.6515 14.8081 25.5451 14.9C23.9629 16.2703 21.9595 16.9501 19.9467 16.9509V16.9518ZM14.2815 8.84252L17.079 11.4665C18.6003 12.8934 20.9784 12.9829 22.4929 11.6709C22.5427 11.6283 22.5907 11.5839 22.6387 11.5388C24.167 10.0749 24.1935 7.67092 22.6988 6.17749L22.4989 5.97798C22.4518 5.93036 22.4029 5.88438 22.3523 5.83922C21.6345 5.19062 20.6791 4.85482 19.6629 4.89012C18.5935 4.92871 17.5652 5.38684 16.844 6.14629L14.2815 8.84252Z" fill="#6C757D"/>
<path d="M66.6646 4.52634C65.97 3.28085 64.982 2.29316 63.7274 1.58873C62.4761 0.886753 61.0028 0.53125 59.3476 0.53125C57.6925 0.53125 56.2157 0.886753 54.9576 1.58791C53.6944 2.29234 52.7056 3.27757 52.0186 4.51649C51.3403 5.73982 50.9801 7.15772 50.9492 8.72998V8.75215C50.9801 10.3244 51.3403 11.7423 52.0186 12.9656C52.7056 14.2054 53.6944 15.1906 54.9576 15.8942C56.2148 16.5954 57.6916 16.9509 59.3476 16.9509C61.0036 16.9509 62.477 16.5954 63.7274 15.8934C64.982 15.1898 65.97 14.2013 66.6646 12.9558C67.3507 11.7259 67.7143 10.3113 67.746 8.75215V8.72916C67.7143 7.17004 67.3507 5.75624 66.6646 4.52552V4.52634ZM59.3476 13.9681C58.2714 13.9681 57.3391 13.7407 56.5776 13.2916C55.8049 12.8367 55.2303 12.2341 54.8213 11.45C54.4079 10.6594 54.1986 9.74887 54.1986 8.74229C54.1986 7.73572 54.4079 6.82521 54.8213 6.03374C55.2303 5.24966 55.8049 4.64703 56.5776 4.19219C57.34 3.74309 58.2722 3.51567 59.3476 3.51567C60.4231 3.51567 61.339 3.74391 62.1091 4.19383C62.8878 4.64868 63.4649 5.25049 63.8749 6.03456C64.2882 6.82603 64.4975 7.73736 64.4975 8.74311C64.4975 9.74887 64.2882 10.6602 63.8749 11.4517C63.4658 12.2349 62.8878 12.8376 62.1091 13.2924C61.339 13.7423 60.4102 13.9706 59.3476 13.9706V13.9681Z" fill="#191919"/>
<path d="M83.7872 0.636719C83.3396 0.636719 82.9408 0.79846 82.6346 1.10388C82.3336 1.40355 82.1741 1.78369 82.1741 2.20323V11.7788L74.7594 1.52753L74.7413 1.50454C74.1668 0.787787 73.4953 0.636719 73.033 0.636719H72.7449C72.1831 0.636719 71.678 0.841153 71.2835 1.22868C70.8882 1.61702 70.6875 2.08746 70.6875 2.6277V15.3002C70.6875 15.7246 70.8496 16.1031 71.1566 16.3971C71.4628 16.6902 71.859 16.8453 72.3015 16.8453C72.744 16.8453 73.1359 16.6926 73.449 16.4044C73.7688 16.1105 73.9369 15.7287 73.9369 15.3002V5.70407L81.3954 16.0177L81.4091 16.0358C81.5961 16.2739 81.8354 16.4693 82.1209 16.6154C82.4177 16.7673 82.7393 16.8445 83.0772 16.8445H83.343C83.9064 16.8445 84.3978 16.6524 84.8035 16.2739C85.2083 15.8971 85.4218 15.4127 85.4218 14.8749V2.20323C85.4218 1.77958 85.2563 1.39699 84.9424 1.09649C84.6285 0.795997 84.2289 0.63754 83.7864 0.63754L83.7872 0.636719Z" fill="#191919"/>
<path d="M99.7438 3.7266C100.167 3.7266 100.548 3.5821 100.847 3.30706C101.152 3.02627 101.313 2.65927 101.313 2.24466C101.313 1.83004 101.155 1.46715 100.855 1.17979C100.556 0.893256 100.172 0.742188 99.7438 0.742188H90.8523C90.4046 0.742188 90.0058 0.903929 89.6988 1.20935C89.3978 1.50902 89.2383 1.88916 89.2383 2.3087V15.1938C89.2383 15.6175 89.4004 15.9968 89.7065 16.2899C90.0127 16.5838 90.4089 16.739 90.8523 16.739H99.7438C100.167 16.739 100.548 16.5945 100.847 16.3194C101.152 16.0387 101.313 15.6717 101.313 15.257C101.313 14.8424 101.155 14.4795 100.855 14.1922C100.556 13.9056 100.171 13.7546 99.7438 13.7546H92.4886V10.2217H98.9454C99.3682 10.2217 99.7498 10.0772 100.048 9.80217C100.354 9.52138 100.515 9.15438 100.515 8.73977C100.515 8.32515 100.357 7.96308 100.057 7.6749C99.7575 7.38836 99.3733 7.2373 98.9454 7.2373H92.4886V3.7266H99.7438Z" fill="#191919"/>
<path d="M109.393 4.22996C110.188 3.78332 111.176 3.55754 112.33 3.55754C113.082 3.55754 113.748 3.63554 114.312 3.78989C114.889 3.94752 115.491 4.18234 116.102 4.48858L116.111 4.49268C116.315 4.59038 116.542 4.64047 116.786 4.64047C117.219 4.64047 117.595 4.4935 117.874 4.21436C118.145 3.9426 118.289 3.60762 118.289 3.24391C118.289 2.66427 118.004 2.19464 117.486 1.92206C116.668 1.47871 115.831 1.13388 115.001 0.895784C114.156 0.654403 113.19 0.53125 112.131 0.53125C110.555 0.53125 109.116 0.866227 107.855 1.52715C106.582 2.19382 105.568 3.16427 104.841 4.41058C104.12 5.64704 103.754 7.10435 103.754 8.74147C103.754 10.3786 104.119 11.8367 104.84 13.0724C105.567 14.3187 106.581 15.2883 107.854 15.9558C109.116 16.6167 110.554 16.9517 112.13 16.9517C113.189 16.9517 114.155 16.8294 115 16.5872C115.83 16.3499 116.666 16.0051 117.485 15.5609C118.004 15.2883 118.288 14.8187 118.288 14.239C118.288 13.8573 118.142 13.5157 117.864 13.2489C117.586 12.9837 117.213 12.8433 116.786 12.8433C116.543 12.8433 116.316 12.8926 116.112 12.9903L116.101 12.9952C115.491 13.3006 114.889 13.5354 114.31 13.6939C113.747 13.8482 113.08 13.9262 112.328 13.9262C111.174 13.9262 110.186 13.6996 109.392 13.2538C108.596 12.8072 108.014 12.2144 107.614 11.441C107.207 10.6577 107.002 9.74969 107.002 8.74229C107.002 7.7349 107.207 6.82685 107.614 6.04277C108.014 5.27019 108.595 4.67741 109.392 4.22996H109.393Z" fill="#191919"/>
<path d="M133.55 0.743009H122.508C122.075 0.743009 121.692 0.897361 121.398 1.18964C121.112 1.47536 120.961 1.84072 120.961 2.24548C120.961 2.65024 121.115 3.0197 121.408 3.29885C121.7 3.57882 122.08 3.7266 122.508 3.7266H126.415V15.2997C126.415 15.7234 126.577 16.1027 126.883 16.3958C127.191 16.6889 127.586 16.8441 128.028 16.8441C128.471 16.8441 128.863 16.6914 129.176 16.4032C129.496 16.1093 129.664 15.7275 129.664 15.2989V3.7266H133.549C133.972 3.7266 134.353 3.5821 134.652 3.30706C134.957 3.02627 135.118 2.65927 135.118 2.24466C135.118 1.83004 134.96 1.46715 134.66 1.17979C134.361 0.893256 133.977 0.742188 133.549 0.742188L133.55 0.743009Z" fill="#191919"/>
<path d="M151.438 4.52634C150.743 3.28085 149.755 2.29316 148.501 1.58873C147.25 0.886753 145.776 0.53125 144.121 0.53125C142.466 0.53125 140.989 0.886753 139.731 1.58791C138.468 2.29234 137.479 3.27757 136.792 4.51649C136.114 5.73982 135.754 7.15772 135.723 8.72998V8.75215C135.754 10.3244 136.114 11.7423 136.792 12.9656C137.479 14.2054 138.468 15.1906 139.731 15.895C140.988 16.5962 142.465 16.9517 144.121 16.9517C145.777 16.9517 147.25 16.5962 148.501 15.8942C149.755 15.1906 150.743 14.2021 151.438 12.9566C152.124 11.7267 152.488 10.3121 152.519 8.75297V8.72998C152.488 7.17086 152.124 5.75706 151.438 4.52634ZM149.27 8.74147C149.27 9.74723 149.061 10.6586 148.647 11.4492C148.238 12.2325 147.66 12.8351 146.882 13.2899C146.112 13.7399 145.183 13.9681 144.12 13.9681C143.058 13.9681 142.112 13.7407 141.35 13.2916C140.577 12.8367 140.003 12.2341 139.594 11.45C139.181 10.6594 138.971 9.74887 138.971 8.74229C138.971 7.73572 139.18 6.82521 139.594 6.03374C140.003 5.24966 140.577 4.64704 141.35 4.19219C142.113 3.74309 143.045 3.51567 144.12 3.51567C145.196 3.51567 146.112 3.74391 146.882 4.19383C147.66 4.64868 148.238 5.25049 148.647 6.03456C149.061 6.82603 149.27 7.73736 149.27 8.74311V8.74147Z" fill="#191919"/>
<path d="M44.7082 8.79274L48.7235 3.04805C48.967 2.69912 49.0554 2.27958 48.9696 1.86824C48.8847 1.45609 48.6369 1.10059 48.2724 0.866597C47.9079 0.632606 47.4697 0.549683 47.0392 0.630964C46.6087 0.713066 46.2373 0.950341 45.9938 1.29845L39.7025 10.2977V2.17366C39.7025 1.7492 39.5284 1.351 39.2119 1.05297C38.8955 0.754938 38.4787 0.596481 38.0336 0.601407C37.5713 0.608796 37.1305 0.809126 36.8252 1.15149C36.5534 1.44213 36.4102 1.80585 36.4102 2.20404V15.301C36.4102 15.7246 36.5722 16.1039 36.8784 16.397C37.0019 16.5153 37.14 16.6113 37.29 16.6836C37.5593 16.8273 37.8501 16.8962 38.1356 16.8962C38.6879 16.8962 39.2213 16.6392 39.5524 16.1655L42.8653 11.4258L46.7999 16.2287C47.1086 16.6319 47.5546 16.8445 48.0897 16.8445C48.5322 16.8445 48.9285 16.6893 49.2346 16.3962C49.5468 16.0974 49.7011 15.7205 49.6814 15.3051C49.6771 14.9652 49.5519 14.6417 49.3049 14.3396L44.7074 8.79192L44.7082 8.79274Z" fill="#191919"/>
<path d="M165.249 10.2677C165.44 10.1954 165.628 10.1191 165.808 10.0394C166.043 9.93764 166.263 9.83173 166.466 9.72335H166.559L166.682 9.60594C167.281 9.26933 167.776 8.82844 168.153 8.29559C168.716 7.49838 169.002 6.60511 169.002 5.64123C169.002 4.17488 168.418 2.97208 167.269 2.06568C166.155 1.188 164.502 0.742188 162.354 0.742188H157.188C156.741 0.742188 156.343 0.903929 156.035 1.20935C155.734 1.50902 155.574 1.88916 155.574 2.3087V15.2997C155.574 15.7234 155.736 16.1027 156.042 16.3958C156.349 16.6897 156.745 16.8441 157.187 16.8441C157.63 16.8441 158.021 16.6922 158.337 16.4024C158.655 16.1076 158.824 15.7258 158.824 15.2989V10.9639H161.806L166.118 16.2275C166.427 16.6306 166.873 16.8433 167.408 16.8433C167.851 16.8433 168.247 16.6881 168.553 16.395C168.865 16.0961 169.019 15.7193 169 15.3038C168.996 14.9639 168.87 14.6405 168.626 14.3416L165.249 10.2669V10.2677ZM164.904 7.3391C164.264 7.75126 163.362 7.96062 162.221 7.96062H158.825V3.74795H162.111C163.867 3.74795 164.672 4.05501 165.038 4.31281C165.525 4.656 165.752 5.12563 165.752 5.79065C165.752 6.45568 165.483 6.96636 164.904 7.3391Z" fill="#191919"/>
</svg>
