<svg width="32" height="33" viewBox="0 0 32 33" fill="none" xmlns="http://www.w3.org/2000/svg">
<path d="M22.208 0.34375H9.79195C7.19807 0.353863 4.71331 1.38876 2.87914 3.22293C1.04497 5.0571 0.0101127 7.54186 0 10.1357V22.5517C0.0101127 25.1456 1.04497 27.6304 2.87914 29.4646C4.71331 31.2987 7.19807 32.3336 9.79195 32.3438H22.208C24.8029 32.337 27.2896 31.3032 29.1245 29.4683C30.9594 27.6334 31.9932 25.1467 32 22.5517V10.1357C31.9899 7.54186 30.9549 5.0571 29.1208 3.22293C27.2866 1.38876 24.8019 0.353863 22.208 0.34375ZM12.3904 23.3197H9.29281V13.3741H12.3904V23.3197ZM10.8416 12.0046C10.6062 12.0046 10.3732 11.9582 10.1558 11.8681C9.93837 11.7781 9.74086 11.6461 9.57445 11.4797C9.40805 11.3133 9.27607 11.1157 9.18602 10.8983C9.09596 10.6809 9.04961 10.4479 9.04961 10.2125C9.04961 9.73727 9.23839 9.28148 9.57445 8.94541C9.91052 8.60934 10.3663 8.42055 10.8416 8.42055C11.3168 8.42055 11.7727 8.60934 12.1087 8.94541C12.4448 9.28148 12.6336 9.73727 12.6336 10.2125C12.6336 10.4479 12.5872 10.6809 12.4972 10.8983C12.4071 11.1157 12.2752 11.3133 12.1087 11.4797C11.9423 11.6461 11.7448 11.7781 11.5273 11.8681C11.3099 11.9582 11.0769 12.0046 10.8416 12.0046ZM23.9872 23.3197H20.8896V18.4813C20.8896 17.3293 20.8896 15.8446 19.2896 15.8446C17.6896 15.8446 17.4336 17.1245 17.4336 18.4046V23.3197H14.2976V13.3741H17.2672V14.7309C17.5637 14.2217 17.9931 13.8026 18.5094 13.5186C19.0257 13.2345 19.6095 13.0961 20.1984 13.1181C23.3344 13.1181 23.9104 15.1789 23.9104 17.8669L23.9872 23.3197Z" fill="#F0386B"/>
</svg>
