<svg width="177" height="41" viewBox="0 0 177 41" fill="none" xmlns="http://www.w3.org/2000/svg">
<g clip-path="url(#clip0_7001_12316)">
<path d="M20.5843 17.6165C20.5843 23.3008 15.9765 27.9087 10.2922 27.9087C4.60787 27.9087 0 23.3008 0 17.6165C0 11.9323 4.60787 7.32438 10.2922 7.32438C15.9765 7.32438 20.5843 11.9323 20.5843 17.6165ZM34.6117 0C31.3009 0 28.6161 2.68481 28.6161 5.99556V16.7733C28.6161 26.8164 20.3919 35.5953 10.3555 35.2387C7.35494 35.1324 4.54336 34.2755 2.10303 32.8607C1.52464 32.5245 0.960964 33.2749 1.43069 33.7515C5.84162 38.2235 12.0771 40.88 18.9714 40.5076C31.2817 39.8432 40.6084 29.0055 40.6084 16.6771V5.99556C40.6084 2.68481 37.9236 0 34.6128 0H34.6117Z" fill="#F0386B"/>
<path d="M52.1875 23.8372V3.39551H61.9963C64.345 3.39551 66.07 4.01238 67.1713 5.25065C68.2703 6.49119 68.8216 8.15732 68.8216 10.2524C68.8216 11.6265 68.4662 12.8127 67.7576 13.8076C67.0479 14.8026 66.0485 15.5224 64.7581 15.9673C65.0966 16.2412 65.3659 16.5377 65.5686 16.8558C65.7689 17.1739 65.9749 17.5949 66.1877 18.1246L68.6642 23.8395H64.2194L61.8062 18.3476C61.5945 17.8824 61.3614 17.5542 61.109 17.3629C60.8543 17.1739 60.431 17.0788 59.839 17.0788H56.4739V23.8395H52.1886L52.1875 23.8372ZM56.4739 13.5202H60.886C62.0077 13.5202 62.886 13.2723 63.5199 12.7765C64.1548 12.2785 64.4729 11.4386 64.4729 10.2524C64.4729 9.06621 64.1978 8.2739 63.6478 7.74418C63.0977 7.21446 62.2601 6.95073 61.1395 6.95073H56.4739V13.5202Z" fill="#0B2A52"/>
<path d="M87.1679 24.2177L84.8509 21.8691C84.1311 22.5901 83.2007 23.1504 82.0586 23.551C80.9154 23.954 79.6341 24.1555 78.217 24.1555C75.9102 24.1555 74.0698 23.662 72.6934 22.6772C71.3182 21.6959 70.6289 20.3682 70.6289 18.6941C70.6289 17.2782 71.0375 16.0829 71.8513 15.1084C72.6663 14.1349 73.7823 13.2453 75.2006 12.4428C74.4807 11.7014 73.8831 10.9985 73.4077 10.3296C72.9311 9.6629 72.6934 8.86493 72.6934 7.93452C72.6934 6.51628 73.2005 5.35158 74.2158 4.44155C75.2323 3.53265 76.6188 3.07764 78.3755 3.07764C80.1321 3.07764 81.5176 3.51681 82.5329 4.39514C83.5493 5.27348 84.0575 6.45176 84.0575 7.93452C84.0575 9.01433 83.7926 9.93455 83.2641 10.6963C82.7343 11.4581 81.9624 12.2096 80.9471 12.9487L85.3275 17.4253C85.6229 16.8333 85.7723 16.1338 85.7723 15.3302V14.6952H89.0106V15.4264C89.0106 16.2301 88.894 17.0122 88.6608 17.7751C88.4288 18.5368 88.1221 19.1933 87.7406 19.7434L89.8029 21.8385L87.1679 24.2177ZM78.217 21.2024C80.0801 21.2024 81.4225 20.6523 82.2488 19.5521L77.7733 15.0133C76.7784 15.4581 76.0268 15.9482 75.5198 16.4881C75.0127 17.028 74.758 17.7332 74.758 18.5991C74.758 19.465 75.0806 20.092 75.7269 20.5368C76.3709 20.9817 77.2028 21.2035 78.2181 21.2035L78.217 21.2024ZM78.2487 11.2362C79.0093 10.7484 79.5922 10.2934 79.9941 9.87003C80.3959 9.44897 80.5974 8.86493 80.5974 8.12355C80.5974 7.49083 80.423 6.96677 80.0744 6.5525C79.7247 6.13937 79.1689 5.93563 78.4072 5.93563C77.6454 5.93563 77.0534 6.15295 76.6935 6.58419C76.3347 7.0177 76.1547 7.53271 76.1547 8.12355C76.1547 8.78003 76.3392 9.33013 76.7105 9.77382C77.0795 10.2187 77.5945 10.7065 78.2498 11.2362H78.2487Z" fill="#0B2A52"/>
<path d="M97.4965 24.1553C96.1847 24.1553 94.9623 24.0602 93.8304 23.8689C92.6974 23.6799 91.7183 23.4037 90.8932 23.0449V19.2679C91.8247 19.6482 92.8298 19.9549 93.9096 20.1881C94.9894 20.4212 96.0477 20.5367 97.0845 20.5367C98.565 20.5367 99.655 20.3997 100.353 20.1236C101.052 19.8496 101.4 19.2248 101.4 18.2503C101.4 17.638 101.252 17.1501 100.956 16.7902C100.659 16.4314 100.145 16.1077 99.4162 15.8213C98.6861 15.5372 97.6539 15.2146 96.3216 14.8524C94.1835 14.2604 92.6815 13.5191 91.8134 12.6305C90.9452 11.742 90.5117 10.515 90.5117 8.94966C90.5117 7.06622 91.1999 5.61741 92.5763 4.59986C93.9515 3.58456 95.9515 3.07861 98.5763 3.07861C99.8033 3.07861 100.945 3.16124 102.005 3.33215C103.063 3.50307 103.919 3.70115 104.575 3.93431V7.71365C102.84 7.05716 101.031 6.72892 99.1479 6.72892C97.8146 6.72892 96.7676 6.87153 96.0058 7.1579C95.2441 7.442 94.8627 8.0419 94.8627 8.95079C94.8627 9.48051 95.0007 9.90383 95.2758 10.2196C95.5497 10.5377 96.0206 10.8241 96.6872 11.0776C97.3539 11.3334 98.29 11.6175 99.4966 11.9356C101.168 12.3804 102.46 12.909 103.37 13.5213C104.279 14.1359 104.909 14.8332 105.258 15.6164C105.606 16.4019 105.781 17.2803 105.781 18.2514C105.781 20.0285 105.104 21.4569 103.75 22.5367C102.395 23.6165 100.31 24.1564 97.4954 24.1564L97.4965 24.1553Z" fill="#0B2A52"/>
<path d="M118.345 24.1553C116.631 24.1553 115.107 23.9119 113.773 23.4241V19.8043C114.832 20.2718 116.069 20.505 117.487 20.505C118.799 20.505 119.736 20.2333 120.296 19.6934C120.857 19.1558 121.137 18.2729 121.137 17.0426V3.39551H125.423V17.9967C125.423 22.102 123.063 24.1553 118.344 24.1553H118.345Z" fill="#0B2A52"/>
<path d="M135.611 24.1556C132.796 24.1556 130.733 23.4731 129.421 22.1069C128.11 20.743 127.453 18.8109 127.453 16.3151C127.453 13.8193 128.114 11.8872 129.437 10.521C130.76 9.15713 132.819 8.47461 135.612 8.47461C138.404 8.47461 140.496 9.15713 141.818 10.521C143.141 11.8872 143.802 13.8171 143.802 16.3151C143.802 18.8132 143.145 20.743 141.834 22.1069C140.522 23.4731 138.448 24.1556 135.612 24.1556H135.611ZM135.611 20.5053C136.986 20.5053 137.971 20.1929 138.564 19.5681C139.156 18.9456 139.452 17.8601 139.452 16.3163C139.452 14.7724 139.156 13.6869 138.564 13.061C137.971 12.4384 136.987 12.126 135.611 12.126C134.234 12.126 133.283 12.4384 132.69 13.061C132.097 13.6858 131.802 14.7712 131.802 16.3163C131.802 17.8613 132.097 18.9456 132.69 19.5681C133.283 20.1929 134.257 20.5053 135.611 20.5053Z" fill="#0B2A52"/>
<path d="M155.025 24.1552C153.965 24.1552 153.045 24.0126 152.262 23.7262C151.479 23.4398 150.76 23.0131 150.104 22.4393L149.882 23.8371H146.168V2.44238H150.453V9.61622C151.067 9.23591 151.754 8.94955 152.516 8.75826C153.277 8.56697 154.071 8.47416 154.896 8.47416C157.054 8.47416 158.764 9.08084 160.022 10.2976C161.282 11.5144 161.912 13.4782 161.912 16.1879C161.912 18.8976 161.292 20.8999 160.055 22.2016C158.817 23.5032 157.139 24.1541 155.024 24.1541L155.025 24.1552ZM153.818 21.0108C155.192 21.0108 156.161 20.6101 156.722 19.8043C157.282 19.0006 157.564 17.794 157.564 16.1879C157.564 14.5818 157.261 13.3356 156.658 12.6463C156.055 11.9592 155.097 11.6151 153.785 11.6151C153.129 11.6151 152.511 11.7102 151.928 11.9015C151.346 12.0905 150.855 12.3667 150.453 12.7255V19.6458C150.875 20.0906 151.378 20.429 151.961 20.6611C152.543 20.8931 153.162 21.0097 153.818 21.0097V21.0108Z" fill="#0B2A52"/>
<path d="M169.688 24.1556C168.566 24.1556 167.498 24.0753 166.483 23.9179C165.466 23.7572 164.653 23.5637 164.038 23.3294V19.7741C164.779 20.0707 165.615 20.2982 166.546 20.4567C167.478 20.6174 168.333 20.6944 169.118 20.6944C170.176 20.6944 170.921 20.6321 171.356 20.5053C171.789 20.3786 172.006 20.0922 172.006 19.6474C172.006 19.138 171.674 18.769 171.007 18.537C170.34 18.305 169.351 17.9767 168.039 17.5523C166.664 17.0871 165.606 16.5268 164.864 15.8703C164.124 15.2138 163.754 14.2404 163.754 12.9489C163.754 11.5103 164.278 10.4045 165.326 9.63139C166.373 8.85945 168.061 8.47461 170.389 8.47461C171.319 8.47461 172.199 8.54139 173.024 8.67835C173.848 8.81757 174.546 8.98056 175.119 9.17185V12.6954C174.546 12.4215 173.891 12.2143 173.151 12.0751C172.409 11.9382 171.722 11.868 171.086 11.868C170.177 11.868 169.452 11.9325 168.912 12.0593C168.372 12.186 168.101 12.4622 168.101 12.8855C168.101 13.3507 168.392 13.679 168.974 13.8703C169.556 14.0593 170.46 14.3457 171.688 14.7248C172.895 15.087 173.837 15.4764 174.515 15.8997C175.192 16.323 175.667 16.8245 175.942 17.4085C176.217 17.9903 176.355 18.7158 176.355 19.5806C176.355 22.6287 174.133 24.1534 169.688 24.1534V24.1556Z" fill="#0B2A52"/>
<path d="M56.4653 31.7468V38.5878H54.9893V31.7468H52.3555V30.5889H59.1116V31.7468H56.4664H56.4653Z" fill="#F0386B"/>
<path d="M63.2613 37.4244C63.0417 37.8749 62.7712 38.2009 62.4498 38.4013C62.1283 38.6016 61.7424 38.7023 61.2919 38.7023C60.6331 38.7023 60.1362 38.5133 59.7989 38.1341C59.4616 37.7561 59.293 37.18 59.293 36.408V32.4453H60.701V36.039C60.701 36.6027 60.7927 37.0113 60.9761 37.2648C61.1594 37.5184 61.4503 37.6452 61.8476 37.6452C62.2675 37.6452 62.6048 37.4788 62.8584 37.146C63.1119 36.8132 63.2387 36.3741 63.2387 35.8285V32.4453H64.6411V37.2366C64.6411 37.5286 64.6456 37.7866 64.6524 38.0119C64.6592 38.2371 64.6694 38.4284 64.6807 38.588H63.3462C63.3304 38.399 63.3179 38.21 63.3066 38.0198C63.2953 37.8297 63.2874 37.6316 63.284 37.4233H63.2613V37.4244Z" fill="#F0386B"/>
<path d="M71.1598 33.4098V38.5882H69.7574V33.4098H68.8711V32.4443H69.7574V31.7856C69.7574 31.2287 69.8966 30.8201 70.175 30.5586C70.4523 30.2972 70.8779 30.167 71.4495 30.167C71.7517 30.167 72.0573 30.193 72.3641 30.2462V31.1947C72.2011 31.1608 72.0483 31.1438 71.9045 31.1438C71.6363 31.1438 71.445 31.2015 71.3307 31.317C71.2175 31.4324 71.1598 31.6396 71.1598 31.9384V32.4443H72.3641V33.4098H71.1598Z" fill="#F0386B"/>
<path d="M77.0426 37.4244C76.823 37.8749 76.5525 38.2009 76.231 38.4013C75.9096 38.6016 75.5236 38.7023 75.0731 38.7023C74.4144 38.7023 73.9175 38.5133 73.5802 38.1341C73.2429 37.7561 73.0742 37.18 73.0742 36.408V32.4453H74.4823V36.039C74.4823 36.6027 74.574 37.0113 74.7573 37.2648C74.9407 37.5184 75.2316 37.6452 75.6289 37.6452C76.0488 37.6452 76.3861 37.4788 76.6396 37.146C76.8932 36.8132 77.0199 36.3741 77.0199 35.8285V32.4453H78.4223V37.2366C78.4223 37.5286 78.4269 37.7866 78.4337 38.0119C78.4404 38.2371 78.4506 38.4284 78.462 38.588H77.1275C77.1116 38.399 77.0992 38.21 77.0879 38.0198C77.0765 37.8297 77.0686 37.6316 77.0652 37.4233H77.0426V37.4244Z" fill="#F0386B"/>
<path d="M82.7699 38.5134C82.3986 38.6266 81.9844 38.6843 81.5271 38.6843C81.0698 38.6843 80.7325 38.5609 80.4971 38.3131C80.2605 38.0652 80.1417 37.6917 80.1417 37.1914V33.4098H79.3867V32.4443H80.2096L80.6408 31.0249H81.5328V32.4443H82.6907V33.4098H81.5328V36.8337C81.5328 37.1291 81.5871 37.343 81.6946 37.4777C81.8021 37.6124 81.9753 37.6792 82.2141 37.6792C82.3353 37.6792 82.5209 37.6532 82.771 37.6V38.5145L82.7699 38.5134Z" fill="#F0386B"/>
<path d="M87.5895 37.4244C87.3699 37.8749 87.0993 38.2009 86.7779 38.4013C86.4564 38.6016 86.0705 38.7023 85.62 38.7023C84.9612 38.7023 84.4643 38.5133 84.127 38.1341C83.7897 37.7561 83.6211 37.18 83.6211 36.408V32.4453H85.0291V36.039C85.0291 36.6027 85.1208 37.0113 85.3042 37.2648C85.4876 37.5184 85.7784 37.6452 86.1757 37.6452C86.5957 37.6452 86.933 37.4788 87.1865 37.146C87.44 36.8132 87.5668 36.3741 87.5668 35.8285V32.4453H88.9692V37.2366C88.9692 37.5286 88.9737 37.7866 88.9805 38.0119C88.9873 38.2371 88.9975 38.4284 89.0088 38.588H87.6743C87.6585 38.399 87.646 38.21 87.6347 38.0198C87.6234 37.8297 87.6155 37.6316 87.6121 37.4233H87.5895V37.4244Z" fill="#F0386B"/>
<path d="M91.9946 35.5106V38.5882H90.5922V33.8819C90.5922 33.5864 90.5876 33.325 90.5774 33.0952C90.5684 32.8666 90.5582 32.6492 90.5469 32.4455H91.887C91.8949 32.5247 91.9017 32.6277 91.9074 32.7522C91.9131 32.8768 91.9198 33.0058 91.9266 33.1382C91.9334 33.2706 91.9402 33.3918 91.9436 33.5015C91.947 33.6113 91.9493 33.6906 91.9493 33.7404H91.9719C92.1123 33.3318 92.2458 33.033 92.3749 32.8428C92.4994 32.6606 92.6454 32.5293 92.8118 32.4489C92.9781 32.3674 93.1864 32.3267 93.4366 32.3267C93.6222 32.3267 93.7795 32.3527 93.9074 32.4059V33.6034C93.6958 33.5547 93.4841 33.5298 93.2713 33.5298C92.8627 33.5298 92.5469 33.6985 92.3262 34.0347C92.1043 34.372 91.9946 34.8643 91.9946 35.5106Z" fill="#F0386B"/>
<path d="M100.516 35.5105C100.516 36.5326 100.253 37.3192 99.7274 37.8727C99.201 38.4251 98.4619 38.7013 97.5078 38.7013C96.5536 38.7013 95.8473 38.4217 95.33 37.8603C94.8128 37.3 94.5547 36.5167 94.5547 35.5105C94.5547 34.5043 94.8128 33.7176 95.33 33.163C95.8462 32.6084 96.583 32.3311 97.5406 32.3311C98.4981 32.3311 99.2667 32.5993 99.7658 33.137C100.265 33.6746 100.515 34.4658 100.515 35.5105H100.516ZM99.046 35.5105C99.046 34.742 98.9237 34.1839 98.6792 33.8353C98.4348 33.4867 98.0635 33.3124 97.5632 33.3124C97.0629 33.3124 96.6554 33.4935 96.4053 33.8546C96.1552 34.2156 96.0307 34.768 96.0307 35.5094C96.0307 36.2507 96.1529 36.7873 96.3974 37.1619C96.6419 37.5366 97.0075 37.7233 97.4953 37.7233C98.025 37.7233 98.4155 37.5411 98.6679 37.1755C98.9192 36.8099 99.046 36.2553 99.046 35.5094V35.5105Z" fill="#F0386B"/>
<path d="M106.153 35.7946C106.153 36.4273 106.275 36.9084 106.52 37.24C106.764 37.5716 107.116 37.7369 107.578 37.7369C107.911 37.7369 108.181 37.6667 108.389 37.5241C108.598 37.3826 108.741 37.1845 108.821 36.931L110.126 37.1064C109.713 38.1704 108.844 38.7013 107.52 38.7013C106.605 38.7013 105.902 38.4285 105.412 37.884C104.921 37.3385 104.676 36.5382 104.676 35.4822C104.676 34.4262 104.923 33.6893 105.417 33.146C105.911 32.6027 106.614 32.3311 107.526 32.3311C108.438 32.3311 109.09 32.6174 109.55 33.1879C110.009 33.7595 110.239 34.6016 110.239 35.7142V35.7935H106.152L106.153 35.7946ZM108.86 34.8642C108.818 34.3186 108.684 33.9145 108.454 33.6486C108.225 33.3837 107.908 33.2513 107.503 33.2513C107.098 33.2513 106.763 33.3939 106.532 33.6803C106.301 33.9666 106.178 34.3605 106.163 34.8642H108.86Z" fill="#F0386B"/>
<path d="M112.893 35.2036V38.5867H111.491V33.7955C111.491 33.4582 111.486 33.1832 111.476 32.9692C111.467 32.7553 111.457 32.5799 111.445 32.444H112.785C112.793 32.5006 112.801 32.6059 112.811 32.7587C112.821 32.9115 112.83 33.0688 112.838 33.2296C112.845 33.3903 112.849 33.5171 112.849 33.6076H112.871C113.075 33.1503 113.323 32.821 113.613 32.6229C113.903 32.4237 114.251 32.3252 114.66 32.3252C115.13 32.3252 115.504 32.4316 115.784 32.6433C116.063 32.8549 116.255 33.1764 116.358 33.6087H116.386C116.594 33.1549 116.846 32.8277 117.141 32.6263C117.436 32.4259 117.805 32.3252 118.248 32.3252C118.853 32.3252 119.307 32.5176 119.611 32.9013C119.913 33.285 120.065 33.86 120.065 34.624V38.5867H118.673V34.993C118.673 34.4328 118.594 34.0253 118.436 33.7695C118.276 33.5137 118.023 33.3869 117.675 33.3869C117.328 33.3869 117.031 33.5431 116.809 33.8555C116.587 34.1679 116.478 34.6025 116.478 35.1583V38.5879H115.087V34.9942C115.087 34.4339 115.008 34.0264 114.851 33.7706C114.694 33.5148 114.441 33.388 114.094 33.388C113.746 33.388 113.444 33.5533 113.226 33.8849C113.006 34.2166 112.896 34.6557 112.896 35.2047L112.893 35.2036Z" fill="#F0386B"/>
<path d="M127.211 35.4878C127.211 36.528 127.01 37.3237 126.612 37.8749C126.212 38.4261 125.638 38.7012 124.889 38.7012C123.981 38.7012 123.354 38.3401 123.01 37.6169H122.976C122.999 37.704 123.01 38.0402 123.01 38.6276V41.0012H121.602V33.8081C121.602 33.5093 121.599 33.2455 121.594 33.0192C121.589 32.7917 121.578 32.6004 121.562 32.4453H122.925C122.937 32.4793 122.947 32.5551 122.957 32.6728C122.966 32.7905 122.974 32.9196 122.98 33.0622C122.985 33.2037 122.988 33.3293 122.988 33.4391H123.01C123.192 33.061 123.441 32.7792 123.759 32.5958C124.078 32.4125 124.476 32.3208 124.957 32.3208C125.684 32.3208 126.241 32.5891 126.629 33.1267C127.017 33.6643 127.211 34.451 127.211 35.4889V35.4878ZM125.746 35.4935C125.746 34.7521 125.637 34.2042 125.42 33.8522C125.203 33.5002 124.869 33.3248 124.418 33.3248C123.968 33.3248 123.594 33.5127 123.354 33.8896C123.114 34.2665 122.993 34.82 122.993 35.55C122.993 36.2801 123.112 36.8019 123.347 37.1709C123.584 37.5399 123.937 37.7244 124.407 37.7244C124.877 37.7244 125.198 37.5433 125.418 37.1822C125.637 36.8211 125.747 36.2575 125.747 35.4935H125.746Z" fill="#F0386B"/>
<path d="M129.895 30.1621V31.2691H128.492V30.1621H129.895ZM129.895 32.4451V38.5878H128.492V32.4451H129.895Z" fill="#F0386B"/>
<path d="M132.649 35.7946C132.649 36.4273 132.771 36.9084 133.016 37.24C133.26 37.5716 133.612 37.7369 134.074 37.7369C134.407 37.7369 134.677 37.6667 134.886 37.5241C135.094 37.3826 135.238 37.1845 135.317 36.931L136.622 37.1064C136.209 38.1704 135.341 38.7013 134.016 38.7013C133.101 38.7013 132.398 38.4285 131.908 37.884C131.417 37.3385 131.172 36.5382 131.172 35.4822C131.172 34.4262 131.419 33.6893 131.913 33.146C132.407 32.6027 133.11 32.3311 134.022 32.3311C134.934 32.3311 135.586 32.6174 136.046 33.1879C136.505 33.7595 136.735 34.6016 136.735 35.7142V35.7935H132.648L132.649 35.7946ZM135.356 34.8642C135.315 34.3186 135.18 33.9145 134.95 33.6486C134.721 33.3837 134.405 33.2513 133.999 33.2513C133.594 33.2513 133.259 33.3939 133.028 33.6803C132.797 33.9666 132.674 34.3605 132.659 34.8642H135.356Z" fill="#F0386B"/>
<path d="M142.518 37.5489V38.588H137.641V37.5772L140.713 33.4787H137.862V32.4453H142.29V33.4674L139.231 37.5489H142.518Z" fill="#F0386B"/>
<path d="M145.258 38.7011C144.657 38.7011 144.193 38.5392 143.867 38.2155C143.541 37.8918 143.379 37.4391 143.379 36.8561C143.379 36.22 143.587 35.7356 144.004 35.4028C144.42 35.07 145.044 34.8957 145.877 34.8799L147.223 34.8572V34.5335C147.223 34.1023 147.14 33.7854 146.976 33.5828C146.812 33.3802 146.547 33.2794 146.184 33.2794C145.82 33.2794 145.58 33.3507 145.417 33.4922C145.254 33.6337 145.156 33.8646 145.122 34.1827L143.657 34.0978C143.854 32.9206 144.713 32.332 146.235 32.332C147.01 32.332 147.604 32.5188 148.014 32.8912C148.425 33.2636 148.63 33.7967 148.63 34.4894V36.8618C148.63 37.1912 148.668 37.4255 148.746 37.5636C148.824 37.7017 148.96 37.7707 149.158 37.7707C149.271 37.7707 149.387 37.7594 149.505 37.7367V38.5257C149.33 38.5675 149.174 38.5981 149.036 38.6196C148.898 38.64 148.738 38.6502 148.556 38.6502C148.162 38.6502 147.874 38.5517 147.69 38.3547C147.507 38.1578 147.398 37.8601 147.363 37.4628H147.329C147.094 37.8862 146.806 38.1997 146.467 38.4C146.126 38.6004 145.723 38.7011 145.258 38.7011ZM147.222 35.6813L146.301 35.6982C145.893 35.7096 145.595 35.7514 145.409 35.8227C145.224 35.8986 145.082 36.014 144.984 36.1691C144.885 36.3242 144.837 36.529 144.837 36.7826C144.837 37.0859 144.911 37.3146 145.061 37.4696C145.21 37.6247 145.416 37.7028 145.677 37.7028C145.968 37.7028 146.231 37.6292 146.466 37.4809C146.7 37.3327 146.884 37.1301 147.019 36.8709C147.154 36.6117 147.22 36.34 147.22 36.0559V35.6813H147.222Z" fill="#F0386B"/>
<path d="M154.957 38.7011C154.356 38.7011 153.892 38.5392 153.566 38.2155C153.24 37.8918 153.078 37.4391 153.078 36.8561C153.078 36.22 153.286 35.7356 153.703 35.4028C154.119 35.07 154.743 34.8957 155.576 34.8799L156.922 34.8572V34.5335C156.922 34.1023 156.839 33.7854 156.675 33.5828C156.511 33.3802 156.246 33.2794 155.883 33.2794C155.52 33.2794 155.28 33.3507 155.117 33.4922C154.954 33.6337 154.855 33.8646 154.821 34.1827L153.357 34.0978C153.554 32.9206 154.413 32.332 155.934 32.332C156.709 32.332 157.303 32.5188 157.713 32.8912C158.124 33.2636 158.329 33.7967 158.329 34.4894V36.8618C158.329 37.1912 158.367 37.4255 158.445 37.5636C158.524 37.7017 158.659 37.7707 158.857 37.7707C158.971 37.7707 159.086 37.7594 159.204 37.7367V38.5257C159.03 38.5675 158.873 38.5981 158.735 38.6196C158.597 38.64 158.438 38.6502 158.255 38.6502C157.861 38.6502 157.573 38.5517 157.389 38.3547C157.206 38.1578 157.097 37.8601 157.062 37.4628H157.028C156.793 37.8862 156.505 38.1997 156.166 38.4C155.825 38.6004 155.422 38.7011 154.957 38.7011ZM156.921 35.6813L156.001 35.6982C155.592 35.7096 155.294 35.7514 155.109 35.8227C154.923 35.8986 154.782 36.014 154.683 36.1691C154.585 36.3242 154.536 36.529 154.536 36.7826C154.536 37.0859 154.611 37.3146 154.76 37.4696C154.91 37.6247 155.115 37.7028 155.376 37.7028C155.667 37.7028 155.93 37.6292 156.165 37.4809C156.399 37.3327 156.584 37.1301 156.718 36.8709C156.853 36.6117 156.92 36.34 156.92 36.0559V35.6813H156.921Z" fill="#F0386B"/>
<path d="M159.633 35.5273C159.633 34.4939 159.833 33.7016 160.235 33.1515C160.636 32.6014 161.213 32.3252 161.967 32.3252C162.421 32.3252 162.801 32.4135 163.108 32.5912C163.414 32.7689 163.66 33.0462 163.846 33.4209C163.846 33.319 163.85 33.1945 163.86 33.0485C163.869 32.9025 163.881 32.7689 163.894 32.6455C163.908 32.5233 163.918 32.4463 163.926 32.4157H165.277C165.263 32.5901 165.251 32.8017 165.246 33.0519C165.24 33.302 165.238 33.5906 165.238 33.9211V41.001H163.841V38.469L163.869 37.5714H163.858C163.672 37.9574 163.419 38.2426 163.097 38.426C162.776 38.6094 162.371 38.7011 161.883 38.7011C161.145 38.7011 160.586 38.4271 160.206 37.8805C159.825 37.3338 159.635 36.5494 159.635 35.5273H159.633ZM163.851 35.4707C163.851 34.7701 163.734 34.2347 163.499 33.8645C163.265 33.4933 162.911 33.3077 162.438 33.3077C161.964 33.3077 161.642 33.4899 161.425 33.8521C161.207 34.2154 161.099 34.7701 161.099 35.516C161.099 36.2619 161.206 36.8233 161.422 37.1798C161.639 37.5352 161.974 37.7129 162.427 37.7129C162.881 37.7129 163.251 37.5205 163.491 37.1368C163.731 36.7531 163.852 36.1973 163.852 35.4707H163.851Z" fill="#F0386B"/>
<path d="M170.746 37.4244C170.526 37.8749 170.256 38.2009 169.934 38.4013C169.613 38.6016 169.227 38.7023 168.776 38.7023C168.117 38.7023 167.621 38.5133 167.283 38.1341C166.946 37.7561 166.777 37.18 166.777 36.408V32.4453H168.185V36.039C168.185 36.6027 168.277 37.0113 168.46 37.2648C168.644 37.5184 168.935 37.6452 169.332 37.6452C169.752 37.6452 170.089 37.4788 170.343 37.146C170.596 36.8132 170.723 36.3741 170.723 35.8285V32.4453H172.125V37.2366C172.125 37.5286 172.13 37.7866 172.137 38.0119C172.144 38.2371 172.154 38.4284 172.165 38.588H170.831C170.815 38.399 170.802 38.21 170.791 38.0198C170.78 37.8308 170.772 37.6316 170.768 37.4233H170.746V37.4244Z" fill="#F0386B"/>
<path d="M176.355 30.2655L174.448 31.8377H173.625V31.6849L174.988 30.0493H176.356V30.2644L176.355 30.2655ZM175.259 32.4455V38.5882H173.851V32.4455H175.259Z" fill="#F0386B"/>
</g>
<defs>
<clipPath id="clip0_7001_12316">
<rect width="176.354" height="41" fill="white"/>
</clipPath>
</defs>
</svg>
