<svg width="32" height="33" viewBox="0 0 32 33" fill="none" xmlns="http://www.w3.org/2000/svg">
<path d="M32 8.72165V23.9915C31.9932 26.2114 31.1084 28.3384 29.5387 29.9081C27.969 31.4778 25.842 32.3626 23.6221 32.3694H18.498V21.5191H22.2386L22.9431 16.8818H18.5492V13.8842C18.5208 13.5434 18.5681 13.2005 18.6877 12.8801C18.8073 12.5597 18.9963 12.2698 19.2412 12.031C19.4861 11.7923 19.7807 11.6106 20.104 11.4992C20.4273 11.3877 20.7713 11.3491 21.1113 11.3862H23.1353V7.44062C21.9486 7.25219 20.7499 7.14943 19.5485 7.13317C15.8847 7.13317 13.502 9.34935 13.502 13.359V16.8818H9.42833V21.5191H13.502V32.3694H8.37788C6.158 32.3626 4.03097 31.4778 2.46127 29.9081C0.891568 28.3384 0.00675768 26.2114 0 23.9915V8.72165C0.00675768 6.50177 0.891568 4.37474 2.46127 2.80504C4.03097 1.23534 6.158 0.350508 8.37788 0.34375H23.6733C25.8843 0.363963 27.9982 1.25473 29.5569 2.82298C31.1155 4.39123 31.9933 6.51059 32 8.72165Z" fill="#F0386B"/>
</svg>
