<svg width="32" height="33" viewBox="0 0 32 33" fill="none" xmlns="http://www.w3.org/2000/svg">
<path d="M22.208 0.34375H9.79203C7.19814 0.353863 4.71339 1.38876 2.87922 3.22293C1.04505 5.0571 0.0101127 7.54188 0 10.1358V22.5518C0.00675764 25.1467 1.04058 27.6334 2.87547 29.4683C4.71036 31.3032 7.19711 32.337 9.79203 32.3438H22.208C24.8029 32.337 27.2896 31.3032 29.1245 29.4683C30.9594 27.6334 31.9932 25.1467 32 22.5518V10.1358C31.9899 7.54188 30.9549 5.0571 29.1208 3.22293C27.2866 1.38876 24.8019 0.353863 22.208 0.34375ZM23.7695 14.795C23.1695 14.7879 22.5725 14.7106 21.9905 14.5646C21.0726 14.3311 20.205 13.932 19.4305 13.387C19.4305 13.6942 19.4305 14.1677 19.4305 14.7437C19.4305 15.3197 19.4305 15.9342 19.4305 16.395C19.5388 17.8992 19.4744 19.4109 19.2384 20.9005C19.1902 21.174 19.1217 21.4436 19.0336 21.707C18.5605 22.9697 17.6529 24.0226 16.4736 24.6766C15.4057 25.2345 14.1873 25.4361 12.9966 25.2518C11.8059 25.0676 10.7053 24.5072 9.85594 23.6526C9.34578 23.1522 8.9414 22.5545 8.66656 21.8948C8.39172 21.2352 8.25201 20.5271 8.25594 19.8126C8.24234 19.1184 8.3419 18.4267 8.55047 17.7646C9.00173 16.4826 9.91442 15.4147 11.1105 14.7694C11.9425 14.316 12.8765 14.0825 13.8241 14.091C14.1097 14.0751 14.3959 14.0751 14.6816 14.091V17.2142C14.2327 17.1136 13.7663 17.1215 13.3211 17.2372C12.8759 17.353 12.4646 17.5732 12.1216 17.8797C11.6781 18.3603 11.4354 18.9923 11.4431 19.6462C11.4292 20.2001 11.5956 20.7436 11.9169 21.195L12.0192 21.3358C12.3322 21.6468 12.7202 21.8717 13.1456 21.9886C13.5602 22.1168 13.9917 22.1815 14.4256 22.1805C14.6432 22.1355 14.8541 22.0624 15.0528 21.9629C15.4709 21.7431 15.8286 21.4239 16.0942 21.0332C16.3598 20.6426 16.5252 20.1926 16.5759 19.7229C16.5759 15.6397 16.5759 11.5694 16.5759 7.48615H16.8959H18.8544H19.1744C19.3837 8.24387 19.7404 8.95287 20.2241 9.57256C20.3761 9.76467 20.5385 9.9484 20.7105 10.1229C21.3899 10.7432 22.1802 11.2296 23.04 11.5566C23.3408 11.6636 23.6487 11.7491 23.9616 11.8126C23.7824 12.7342 23.7695 13.771 23.7695 14.795Z" fill="#F0386B"/>
</svg>
