<svg width="20" height="24" viewBox="0 0 20 24" fill="none" xmlns="http://www.w3.org/2000/svg">
<path d="M14.7747 6.04258L13.5247 6.54258C13.2622 6.34258 12.9872 6.18008 12.6872 6.05508L12.4997 4.73008C12.4747 4.60508 12.3747 4.51758 12.2497 4.51758H10.2497C10.1247 4.51758 10.0247 4.60508 10.0122 4.73008L9.8247 6.05508C9.5247 6.18008 9.2372 6.34258 8.9872 6.54258L7.7372 6.04258C7.6247 6.00508 7.4872 6.04258 7.4372 6.15508L6.4372 7.88008C6.3747 7.99258 6.3997 8.13008 6.4997 8.20508L7.5622 9.03008C7.5247 9.18008 7.4997 9.35508 7.4997 9.51758C7.4997 9.68008 7.5122 9.84258 7.5372 10.0051L6.4872 10.8301C6.3872 10.9051 6.3622 11.0426 6.4247 11.1426L7.4247 12.8801C7.4872 12.9926 7.6122 13.0301 7.7372 12.9926L8.9747 12.4926C9.2372 12.6926 9.5122 12.8551 9.8247 12.9801L9.9997 14.3051C10.0247 14.4301 10.1247 14.5176 10.2497 14.5176H12.2497C12.3747 14.5176 12.4747 14.4301 12.4997 14.3051L12.6872 12.9801C12.9872 12.8551 13.2747 12.6926 13.5247 12.4926L14.7622 12.9926C14.8747 13.0426 15.0122 12.9926 15.0622 12.8801L16.0622 11.1426C16.1247 11.0301 16.0997 10.9051 15.9997 10.8301L14.9622 10.0051C14.9872 9.84258 14.9997 9.68008 14.9997 9.51758C14.9997 9.34258 14.9872 9.18008 14.9622 9.03008L16.0247 8.20508C16.1247 8.13008 16.1497 7.99258 16.0872 7.88008L15.0872 6.15508C15.0247 6.04258 14.8872 6.00508 14.7747 6.04258ZM11.2497 11.3051C10.2622 11.3051 9.4622 10.5051 9.4622 9.51758C9.4622 8.53008 10.2622 7.73008 11.2497 7.73008C12.2372 7.73008 13.0372 8.53008 13.0372 9.51758C13.0372 10.5051 12.2372 11.3051 11.2497 11.3051Z" fill="#F0386B"/>
<path d="M19.9248 8.34258C19.3873 4.25508 15.8873 1.01758 11.7623 0.780078C11.5873 0.767578 11.4248 0.767578 11.2498 0.767578C6.83731 0.767578 3.21231 4.03008 2.59981 8.26758L0.187309 12.6176C-0.325191 13.4426 0.274809 14.5176 1.24981 14.5176H2.49981V17.0176C2.49981 18.3926 3.62481 19.5176 4.99981 19.5176H6.24981V23.2676H14.9998V17.4176C18.2748 15.8551 20.4373 12.3176 19.9248 8.34258ZM13.6123 15.3051L12.4998 15.8301V20.7676H8.74981V17.0176H4.99981V12.0176H3.37481L5.03731 9.10508C5.26231 5.84258 7.93731 3.26758 11.2498 3.26758C14.6998 3.26758 17.4998 6.06758 17.4998 9.51758C17.4998 12.1301 15.8873 14.3676 13.6123 15.3051Z" fill="#F0386B"/>
</svg>
